<mxfile host="Electron" agent="Mozilla/5.0 (Windows NT 10.0; Win64; x64) AppleWebKit/537.36 (KHTML, like Gecko) draw.io/24.7.8 Chrome/128.0.6613.36 Electron/32.0.1 Safari/537.36" version="24.7.8">
  <diagram name="Page-1" id="3guRnydqpOb7jgr6xI0Z">
    <mxGraphModel dx="2300" dy="722" grid="1" gridSize="10" guides="1" tooltips="1" connect="1" arrows="1" fold="1" page="1" pageScale="1" pageWidth="850" pageHeight="1100" math="0" shadow="0">
      <root>
        <mxCell id="0" />
        <mxCell id="1" parent="0" />
        <mxCell id="uAQs84WhXy2W06qUEOFW-3" value="" style="edgeStyle=orthogonalEdgeStyle;rounded=0;orthogonalLoop=1;jettySize=auto;html=1;" edge="1" parent="1" source="uAQs84WhXy2W06qUEOFW-1" target="uAQs84WhXy2W06qUEOFW-2">
          <mxGeometry relative="1" as="geometry" />
        </mxCell>
        <mxCell id="uAQs84WhXy2W06qUEOFW-1" value="Start" style="ellipse;whiteSpace=wrap;html=1;" vertex="1" parent="1">
          <mxGeometry x="20" y="20" width="120" height="80" as="geometry" />
        </mxCell>
        <mxCell id="uAQs84WhXy2W06qUEOFW-5" value="" style="edgeStyle=orthogonalEdgeStyle;rounded=0;orthogonalLoop=1;jettySize=auto;html=1;" edge="1" parent="1" source="uAQs84WhXy2W06qUEOFW-2" target="uAQs84WhXy2W06qUEOFW-4">
          <mxGeometry relative="1" as="geometry" />
        </mxCell>
        <mxCell id="uAQs84WhXy2W06qUEOFW-2" value="Open Dictionary to middle Page&amp;nbsp;" style="whiteSpace=wrap;html=1;" vertex="1" parent="1">
          <mxGeometry x="20" y="190" width="120" height="60" as="geometry" />
        </mxCell>
        <mxCell id="uAQs84WhXy2W06qUEOFW-4" value="Get word on current" style="shape=parallelogram;perimeter=parallelogramPerimeter;whiteSpace=wrap;html=1;fixedSize=1;" vertex="1" parent="1">
          <mxGeometry x="20" y="330" width="150" height="60" as="geometry" />
        </mxCell>
        <mxCell id="uAQs84WhXy2W06qUEOFW-31" value="" style="edgeStyle=orthogonalEdgeStyle;rounded=0;orthogonalLoop=1;jettySize=auto;html=1;" edge="1" parent="1" source="uAQs84WhXy2W06qUEOFW-6" target="uAQs84WhXy2W06qUEOFW-29">
          <mxGeometry relative="1" as="geometry" />
        </mxCell>
        <mxCell id="uAQs84WhXy2W06qUEOFW-6" value="If word is found" style="rhombus;whiteSpace=wrap;html=1;" vertex="1" parent="1">
          <mxGeometry x="50" y="410" width="80" height="80" as="geometry" />
        </mxCell>
        <mxCell id="uAQs84WhXy2W06qUEOFW-8" value="End" style="ellipse;whiteSpace=wrap;html=1;" vertex="1" parent="1">
          <mxGeometry x="240" y="410" width="80" height="80" as="geometry" />
        </mxCell>
        <mxCell id="uAQs84WhXy2W06qUEOFW-23" style="edgeStyle=orthogonalEdgeStyle;rounded=0;orthogonalLoop=1;jettySize=auto;html=1;" edge="1" parent="1" source="uAQs84WhXy2W06qUEOFW-16">
          <mxGeometry relative="1" as="geometry">
            <mxPoint x="470" y="360" as="targetPoint" />
          </mxGeometry>
        </mxCell>
        <mxCell id="uAQs84WhXy2W06qUEOFW-16" value="Flip Foward&amp;nbsp;" style="rounded=0;whiteSpace=wrap;html=1;" vertex="1" parent="1">
          <mxGeometry x="130" y="790" width="120" height="60" as="geometry" />
        </mxCell>
        <mxCell id="uAQs84WhXy2W06qUEOFW-20" style="edgeStyle=orthogonalEdgeStyle;rounded=0;orthogonalLoop=1;jettySize=auto;html=1;" edge="1" parent="1" source="uAQs84WhXy2W06qUEOFW-18">
          <mxGeometry relative="1" as="geometry">
            <mxPoint x="-230" y="360" as="targetPoint" />
          </mxGeometry>
        </mxCell>
        <mxCell id="uAQs84WhXy2W06qUEOFW-18" value="Flip Backward" style="rounded=0;whiteSpace=wrap;html=1;" vertex="1" parent="1">
          <mxGeometry x="-30" y="780" width="120" height="60" as="geometry" />
        </mxCell>
        <mxCell id="uAQs84WhXy2W06qUEOFW-21" value="" style="edgeStyle=none;orthogonalLoop=1;jettySize=auto;html=1;rounded=0;" edge="1" parent="1">
          <mxGeometry width="80" relative="1" as="geometry">
            <mxPoint x="150" y="449.17" as="sourcePoint" />
            <mxPoint x="230" y="449.17" as="targetPoint" />
            <Array as="points" />
          </mxGeometry>
        </mxCell>
        <mxCell id="uAQs84WhXy2W06qUEOFW-22" value="" style="edgeStyle=none;orthogonalLoop=1;jettySize=auto;html=1;rounded=0;" edge="1" parent="1">
          <mxGeometry width="80" relative="1" as="geometry">
            <mxPoint x="-230" y="360" as="sourcePoint" />
            <mxPoint y="360" as="targetPoint" />
            <Array as="points" />
          </mxGeometry>
        </mxCell>
        <mxCell id="uAQs84WhXy2W06qUEOFW-24" value="" style="edgeStyle=none;orthogonalLoop=1;jettySize=auto;html=1;rounded=0;" edge="1" parent="1" target="uAQs84WhXy2W06qUEOFW-4">
          <mxGeometry width="80" relative="1" as="geometry">
            <mxPoint x="470" y="360" as="sourcePoint" />
            <mxPoint x="310" y="370" as="targetPoint" />
            <Array as="points" />
          </mxGeometry>
        </mxCell>
        <mxCell id="uAQs84WhXy2W06qUEOFW-36" value="" style="edgeStyle=orthogonalEdgeStyle;rounded=0;orthogonalLoop=1;jettySize=auto;html=1;" edge="1" parent="1" source="uAQs84WhXy2W06qUEOFW-29" target="uAQs84WhXy2W06qUEOFW-35">
          <mxGeometry relative="1" as="geometry" />
        </mxCell>
        <mxCell id="uAQs84WhXy2W06qUEOFW-38" value="" style="edgeStyle=orthogonalEdgeStyle;rounded=0;orthogonalLoop=1;jettySize=auto;html=1;" edge="1" parent="1" source="uAQs84WhXy2W06qUEOFW-29" target="uAQs84WhXy2W06qUEOFW-37">
          <mxGeometry relative="1" as="geometry" />
        </mxCell>
        <mxCell id="uAQs84WhXy2W06qUEOFW-29" value="Is the target word aftrer the current word&amp;nbsp;" style="rhombus;whiteSpace=wrap;html=1;" vertex="1" parent="1">
          <mxGeometry y="540" width="180" height="160" as="geometry" />
        </mxCell>
        <mxCell id="uAQs84WhXy2W06qUEOFW-35" value="if No" style="whiteSpace=wrap;html=1;" vertex="1" parent="1">
          <mxGeometry x="-160" y="590" width="120" height="60" as="geometry" />
        </mxCell>
        <mxCell id="uAQs84WhXy2W06qUEOFW-40" style="edgeStyle=orthogonalEdgeStyle;rounded=0;orthogonalLoop=1;jettySize=auto;html=1;entryX=0.5;entryY=0;entryDx=0;entryDy=0;" edge="1" parent="1" source="uAQs84WhXy2W06qUEOFW-37" target="uAQs84WhXy2W06qUEOFW-16">
          <mxGeometry relative="1" as="geometry">
            <Array as="points">
              <mxPoint x="350" y="710" />
              <mxPoint x="190" y="710" />
            </Array>
          </mxGeometry>
        </mxCell>
        <mxCell id="uAQs84WhXy2W06qUEOFW-37" value="If yes" style="whiteSpace=wrap;html=1;" vertex="1" parent="1">
          <mxGeometry x="290" y="590" width="120" height="60" as="geometry" />
        </mxCell>
        <mxCell id="uAQs84WhXy2W06qUEOFW-39" style="edgeStyle=orthogonalEdgeStyle;rounded=0;orthogonalLoop=1;jettySize=auto;html=1;entryX=0.35;entryY=-0.037;entryDx=0;entryDy=0;entryPerimeter=0;" edge="1" parent="1" source="uAQs84WhXy2W06qUEOFW-35" target="uAQs84WhXy2W06qUEOFW-18">
          <mxGeometry relative="1" as="geometry">
            <Array as="points">
              <mxPoint x="-100" y="710" />
              <mxPoint x="12" y="710" />
            </Array>
          </mxGeometry>
        </mxCell>
      </root>
    </mxGraphModel>
  </diagram>
</mxfile>
